<?xml version="1.0" encoding="UTF-8" standalone="no"?>
<svg
   xmlns:dc="http://purl.org/dc/elements/1.1/"
   xmlns:cc="http://creativecommons.org/ns#"
   xmlns:rdf="http://www.w3.org/1999/02/22-rdf-syntax-ns#"
   xmlns:svg="http://www.w3.org/2000/svg"
   xmlns="http://www.w3.org/2000/svg"
   xmlns:sodipodi="http://sodipodi.sourceforge.net/DTD/sodipodi-0.dtd"
   xmlns:inkscape="http://www.inkscape.org/namespaces/inkscape"
   width="45px"
   height="36px"
   viewBox="0 0 45 36"
   version="1.1"
   id="svg12"
   sodipodi:docname="cameraiconwhite.svg"
   inkscape:version="0.92.3 (2405546, 2018-03-11)">
  <metadata
     id="metadata18">
    <rdf:RDF>
      <cc:Work
         rdf:about="">
        <dc:format>image/svg+xml</dc:format>
        <dc:type
           rdf:resource="http://purl.org/dc/dcmitype/StillImage" />
        <dc:title>cameraicon</dc:title>
      </cc:Work>
    </rdf:RDF>
  </metadata>
  <defs
     id="defs16" />
  <sodipodi:namedview
     pagecolor="#ffffff"
     bordercolor="#666666"
     borderopacity="1"
     objecttolerance="10"
     gridtolerance="10"
     guidetolerance="10"
     inkscape:pageopacity="0"
     inkscape:pageshadow="2"
     inkscape:window-width="1920"
     inkscape:window-height="1017"
     id="namedview14"
     showgrid="false"
     inkscape:pagecheckerboard="true"
     inkscape:zoom="6.3777778"
     inkscape:cx="22.5"
     inkscape:cy="18"
     inkscape:window-x="3432"
     inkscape:window-y="90"
     inkscape:window-maximized="1"
     inkscape:current-layer="svg12" />
  <!-- Generator: Sketch 52.6 (67491) - http://www.bohemiancoding.com/sketch -->
  <title
     id="title2">cameraicon</title>
  <desc
     id="desc4">Created with Sketch.</desc>
  <g
     id="Page-1"
     stroke="none"
     stroke-width="1"
     fill="none"
     fill-rule="evenodd">
    <g
       id="cameraicon"
       transform="translate(1.000000, 1.000000)">
      <ellipse
         id="Oval"
         stroke="#050505"
         stroke-width="1.5"
         cx="22"
         cy="18.5"
         rx="11"
         ry="10.5" />
      <circle
         id="circle7"
         fill="#000000"
         cx="38.5"
         cy="9.5"
         r="1.5" />
      <path
         d="M40,34 L3,34 C1.34314575,34 2.02906125e-16,32.6568542 0,31 L-4.4408921e-16,6.60877164 C-6.46995335e-16,4.95191739 1.34314575,3.60877164 3,3.60877164 L11.2722105,3.60877164 L12.9222537,1.27036701 C13.4843554,0.473768917 14.3985016,2.82138144e-15 15.3734513,1.77635684e-15 L28.3953337,-1.77635684e-15 C29.5684023,-1.99184605e-15 30.633856,0.683729739 31.122578,1.75014465 L31.974359,3.60877164 L40,3.60877164 C41.6568542,3.60877164 43,4.95191739 43,6.60877164 L43,31 C43,32.6568542 41.6568542,34 40,34 Z"
         id="Path-19"
         stroke="#040404"
         stroke-width="1.5" />
    </g>
  </g>
  <path
     style="fill:#fffff3;fill-opacity:1;stroke:#ffffff;stroke-width:2.40099287;stroke-miterlimit:4;stroke-dasharray:none;stroke-opacity:1;paint-order:markers stroke fill"
     d="M 3.1358885,34.000239 C 2.706722,33.822724 2.1719022,33.221159 1.9703748,32.68927 1.8570251,32.390108 1.8031359,28.232906 1.8031359,19.787892 1.8031359,6.2937611 1.7755486,6.7412252 2.6577048,5.9268293 L 3.0823053,5.5348432 7.8913268,5.4891138 12.700348,5.4433845 13.632353,4.1173374 c 0.512603,-0.729326 1.13456,-1.5201589 1.382128,-1.7574065 l 0.450124,-0.4313595 7.250961,-0.043656 7.250963,-0.043656 0.539383,0.3572453 c 0.395724,0.2620963 0.726374,0.7435319 1.241458,1.8075937 l 0.702074,1.4503484 h 4.566551 c 4.486563,0 4.575882,0.00623 5.09932,0.3559128 1.139674,0.7613524 1.081061,0.00281 1.081061,13.9907774 0,13.987971 0.05861,13.229424 -1.081061,13.990777 l -0.53277,0.355913 -19.066533,-0.0099 C 12.029418,34.134421 3.3083624,34.071579 3.1358885,34.000239 Z M 26.127541,30.403 c 5.112212,-1.31444 8.649034,-5.777244 8.649034,-10.913453 0,-7.82265 -7.980563,-13.224043 -15.726052,-10.6436828 -1.74913,0.5827113 -3.206875,1.5110058 -4.644179,2.9574198 -1.028211,1.034729 -1.413418,1.565432 -2.002582,2.758977 -1.610132,3.26185 -1.609619,6.593782 0.0015,9.857629 0.605993,1.227623 0.961861,1.710683 2.080979,2.824749 2.556231,2.544687 5.493456,3.692789 9.032905,3.530781 0.776132,-0.03553 1.949902,-0.203115 2.608377,-0.37242 z M 40.54342,11.58349 c 0.863515,-0.863515 0.475747,-2.3136598 -0.697405,-2.608102 -1.496524,-0.3756039 -2.520698,1.598363 -1.36504,2.630944 0.67429,0.602478 1.445669,0.593935 2.062445,-0.02284 z"
     id="path828"
     inkscape:connector-curvature="0" />
</svg>
