<svg xmlns="http://www.w3.org/2000/svg" viewBox="0 0 508 508" width="512" height="512"><circle cx="254" cy="254" r="254" data-original="#324A5E" data-old_color="#E1E8EA" fill="#008fb2"/><path d="M363.6 410.8H144.4c-8.4 0-15.2-6.8-15.2-15.2V126c0-8.4 6.8-15.2 15.2-15.2h218.8c8.4 0 15.2 6.8 15.2 15.2v269.6c.4 8.4-6.4 15.2-14.8 15.2z" data-original="#84DBFF" fill="#84dbff"/><path data-original="#FFFFFF" fill="#fff" d="M150.8 126.4h206.4v257.2H150.8z"/><path data-original="#FF7058" data-old_color="#FF7058" fill="#84dbff" d="M197.2 97.2h114v38h-114z"/><path data-original="#E6E9EE" fill="#e6e9ee" d="M179.2 274.8h149.2v9.6H179.2zM179.2 298.4h149.2v9.6H179.2zM179.2 322h149.2v9.6H179.2zM179.2 345.6h93.6v9.6h-93.6z"/><path data-original="#FFD05B" class="active-path" data-old_color="#FFD05B" fill="#84dbff" d="M278.4 197.6h-19.6l10.4-46.4-39.6 57.6h19.6l-10.4 46z"/></svg>