<svg id="Layer_1" data-name="Layer 1" xmlns="http://www.w3.org/2000/svg" viewBox="0 0 252 144"><defs><style>.cls-1{fill:#5e5d5e;}.cls-2{fill:#ca2027;stroke-width:2px;}.cls-2,.cls-3{stroke:#ca2027;stroke-miterlimit:10;}.cls-3{fill:none;stroke-width:1.5px;}</style></defs><title>Artboard 1</title><rect class="cls-1" x="103.86" y="60.72" width="18.36" height="6.18"/><polyline class="cls-1" points="103.86 60.72 108.83 42.34 118.97 42.34 122.22 60.72"/><path class="cls-2" d="M113,72.56h0a12.18,12.18,0,0,1,12.18,12.18V94.8a0,0,0,0,1,0,0H100.86a0,0,0,0,1,0,0V84.74A12.18,12.18,0,0,1,113,72.56Z"/><rect class="cls-2" x="97.87" y="94.92" width="30.34" height="5.8" rx="2.9"/><path class="cls-3" d="M109.82,101.6h6.44a1.38,1.38,0,0,1,1.38,1.38v0a4,4,0,0,1-4,4h-1.17a4,4,0,0,1-4-4v0a1.38,1.38,0,0,1,1.38-1.38Z"/></svg>