<?xml version="1.0"?>
<svg xmlns="http://www.w3.org/2000/svg" xmlns:xlink="http://www.w3.org/1999/xlink" version="1.1" id="Layer_1" x="0px" y="0px" viewBox="0 0 512 512" style="enable-background:new 0 0 512 512;" xml:space="preserve" width="512px" height="512px" class=""><g><g>
	<g>
		<path d="M476,92H36c-19.852,0-36,16.152-36,36v256c0,19.848,16.148,36,36,36h440c19.852,0,36-16.152,36-36V128    C512,108.152,495.852,92,476,92z M504,384c0,15.44-12.564,28-28,28H36c-15.436,0-28-12.56-28-28V128c0-15.44,12.564-28,28-28h440    c15.436,0,28,12.56,28,28V384z" data-original="#000000" class="active-path" fill="#000000"/>
	</g>
</g><g>
	<g>
		<path d="M364,156c-26.468,0-48,21.532-48,48s21.532,48,48,48c5.796,0,11.46-1.02,16.832-3.036    c2.072-0.776,3.116-3.084,2.344-5.152c-0.776-2.068-3.096-3.108-5.148-2.34C373.552,243.152,368.832,244,364,244    c-22.056,0-40-17.944-40-40c0-22.056,17.944-40,40-40c22.056,0,40,17.944,40,40c0,10.248-3.872,19.996-10.904,27.44    c-1.516,1.608-1.44,4.14,0.164,5.656c1.608,1.516,4.132,1.44,5.656-0.164C407.356,227.996,412,216.3,412,204    C412,177.532,390.468,156,364,156z" data-original="#000000" class="active-path" fill="#000000"/>
	</g>
</g><g>
	<g>
		<path d="M428,156c-6.628,0-13.052,1.328-19.08,3.944c-2.028,0.876-2.96,3.232-2.08,5.26c0.872,2.02,3.232,2.964,5.256,2.08    C417.12,165.104,422.472,164,428,164c22.056,0,40,17.944,40,40c0,22.056-17.944,40-40,40c-22.056,0-40-17.944-40-40    c0-7.78,2.24-15.324,6.468-21.816c1.3-2,2.792-3.892,4.436-5.636c1.52-1.608,1.444-4.14-0.16-5.656    c-1.604-1.516-4.14-1.448-5.652,0.164c-1.976,2.088-3.764,4.36-5.328,6.76C382.688,185.608,380,194.664,380,204    c0,26.468,21.532,48,48,48c26.468,0,48-21.532,48-48S454.468,156,428,156z" data-original="#000000" class="active-path" fill="#000000"/>
	</g>
</g><g>
	<g>
		<path d="M132,160H68c-15.436,0-28,12.56-28,28v32c0,15.44,12.564,28,28,28h64c15.436,0,28-12.56,28-28v-32    C160,172.56,147.436,160,132,160z M152,220c0,11.028-8.972,20-20,20H68c-11.028,0-20-8.972-20-20v-32c0-11.028,8.972-20,20-20h64    c11.028,0,20,8.972,20,20V220z" data-original="#000000" class="active-path" fill="#000000"/>
	</g>
</g><g>
	<g>
		<path d="M132,320H44c-2.212,0-4,1.792-4,4v28c0,2.208,1.788,4,4,4h88c2.212,0,4-1.792,4-4v-28C136,321.792,134.212,320,132,320z     M128,348H48v-20h80V348z" data-original="#000000" class="active-path" fill="#000000"/>
	</g>
</g><g>
	<g>
		<path d="M244,320h-88c-2.212,0-4,1.792-4,4v28c0,2.208,1.788,4,4,4h88c2.212,0,4-1.792,4-4v-28C248,321.792,246.212,320,244,320z     M240,348h-80v-20h80V348z" data-original="#000000" class="active-path" fill="#000000"/>
	</g>
</g><g>
	<g>
		<path d="M356,320h-88c-2.212,0-4,1.792-4,4v28c0,2.208,1.788,4,4,4h88c2.212,0,4-1.792,4-4v-28C360,321.792,358.212,320,356,320z     M352,348h-80v-20h80V348z" data-original="#000000" class="active-path" fill="#000000"/>
	</g>
</g><g>
	<g>
		<path d="M468,320h-88c-2.212,0-4,1.792-4,4v28c0,2.208,1.788,4,4,4h88c2.212,0,4-1.792,4-4v-28C472,321.792,470.212,320,468,320z     M464,348h-80v-20h80V348z" data-original="#000000" class="active-path" fill="#000000"/>
	</g>
</g><g>
	<g>
		<path d="M128,212H44c-2.212,0-4,1.792-4,4s1.788,4,4,4h84c2.212,0,4-1.792,4-4S130.212,212,128,212z" data-original="#000000" class="active-path" fill="#000000"/>
	</g>
</g><g>
	<g>
		<path d="M128,188H44c-2.212,0-4,1.792-4,4s1.788,4,4,4h84c2.212,0,4-1.792,4-4S130.212,188,128,188z" data-original="#000000" class="active-path" fill="#000000"/>
	</g>
</g></g> </svg>
