<svg xmlns="http://www.w3.org/2000/svg" width="512" height="512"><path d="M476 92H36c-19.852 0-36 16.152-36 36v256c0 19.848 16.148 36 36 36h440c19.852 0 36-16.152 36-36V128c0-19.848-16.148-36-36-36zm28 292c0 15.44-12.564 28-28 28H36c-15.436 0-28-12.56-28-28V128c0-15.44 12.564-28 28-28h440c15.436 0 28 12.56 28 28v256z" class="active-path" data-original="#000000"/><path d="M364 156c-26.468 0-48 21.532-48 48s21.532 48 48 48c5.796 0 11.46-1.02 16.832-3.036 2.072-.776 3.116-3.084 2.344-5.152-.776-2.068-3.096-3.108-5.148-2.34-4.476 1.68-9.196 2.528-14.028 2.528-22.056 0-40-17.944-40-40s17.944-40 40-40 40 17.944 40 40c0 10.248-3.872 19.996-10.904 27.44-1.516 1.608-1.44 4.14.164 5.656 1.608 1.516 4.132 1.44 5.656-.164C407.356 227.996 412 216.3 412 204c0-26.468-21.532-48-48-48z" class="active-path" data-original="#000000"/><path d="M428 156c-6.628 0-13.052 1.328-19.08 3.944-2.028.876-2.96 3.232-2.08 5.26.872 2.02 3.232 2.964 5.256 2.08C417.12 165.104 422.472 164 428 164c22.056 0 40 17.944 40 40s-17.944 40-40 40-40-17.944-40-40c0-7.78 2.24-15.324 6.468-21.816 1.3-2 2.792-3.892 4.436-5.636 1.52-1.608 1.444-4.14-.16-5.656-1.604-1.516-4.14-1.448-5.652.164-1.976 2.088-3.764 4.36-5.328 6.76C382.688 185.608 380 194.664 380 204c0 26.468 21.532 48 48 48s48-21.532 48-48-21.532-48-48-48zM132 160H68c-15.436 0-28 12.56-28 28v32c0 15.44 12.564 28 28 28h64c15.436 0 28-12.56 28-28v-32c0-15.44-12.564-28-28-28zm20 60c0 11.028-8.972 20-20 20H68c-11.028 0-20-8.972-20-20v-32c0-11.028 8.972-20 20-20h64c11.028 0 20 8.972 20 20v32zM132 320H44c-2.212 0-4 1.792-4 4v28c0 2.208 1.788 4 4 4h88c2.212 0 4-1.792 4-4v-28c0-2.208-1.788-4-4-4zm-4 28H48v-20h80v20zM244 320h-88c-2.212 0-4 1.792-4 4v28c0 2.208 1.788 4 4 4h88c2.212 0 4-1.792 4-4v-28c0-2.208-1.788-4-4-4zm-4 28h-80v-20h80v20zM356 320h-88c-2.212 0-4 1.792-4 4v28c0 2.208 1.788 4 4 4h88c2.212 0 4-1.792 4-4v-28c0-2.208-1.788-4-4-4zm-4 28h-80v-20h80v20zM468 320h-88c-2.212 0-4 1.792-4 4v28c0 2.208 1.788 4 4 4h88c2.212 0 4-1.792 4-4v-28c0-2.208-1.788-4-4-4zm-4 28h-80v-20h80v20z" class="active-path" data-original="#000000"/><path d="M128 212H44c-2.212 0-4 1.792-4 4s1.788 4 4 4h84c2.212 0 4-1.792 4-4s-1.788-4-4-4zM128 188H44c-2.212 0-4 1.792-4 4s1.788 4 4 4h84c2.212 0 4-1.792 4-4s-1.788-4-4-4z" class="active-path" data-original="#000000"/></svg>