<?xml version="1.0" encoding="UTF-8" standalone="no"?>
<svg
   xmlns:dc="http://purl.org/dc/elements/1.1/"
   xmlns:cc="http://creativecommons.org/ns#"
   xmlns:rdf="http://www.w3.org/1999/02/22-rdf-syntax-ns#"
   xmlns:svg="http://www.w3.org/2000/svg"
   xmlns="http://www.w3.org/2000/svg"
   xmlns:sodipodi="http://sodipodi.sourceforge.net/DTD/sodipodi-0.dtd"
   xmlns:inkscape="http://www.inkscape.org/namespaces/inkscape"
   width="248"
   height="152"
   version="1.1"
   id="svg30"
   sodipodi:docname="ic_dropoffcamera.svg"
   inkscape:version="0.92.3 (2405546, 2018-03-11)">
  <metadata
     id="metadata34">
    <rdf:RDF>
      <cc:Work
         rdf:about="">
        <dc:format>image/svg+xml</dc:format>
        <dc:type
           rdf:resource="http://purl.org/dc/dcmitype/StillImage" />
        <dc:title></dc:title>
      </cc:Work>
    </rdf:RDF>
  </metadata>
  <sodipodi:namedview
     pagecolor="#ffffff"
     bordercolor="#666666"
     borderopacity="1"
     objecttolerance="10"
     gridtolerance="10"
     guidetolerance="10"
     inkscape:pageopacity="0"
     inkscape:pageshadow="2"
     inkscape:window-width="3440"
     inkscape:window-height="1377"
     id="namedview32"
     showgrid="false"
     inkscape:pagecheckerboard="true"
     inkscape:zoom="2.3145161"
     inkscape:cx="228.20153"
     inkscape:cy="12.050314"
     inkscape:window-x="-8"
     inkscape:window-y="-8"
     inkscape:window-maximized="1"
     inkscape:current-layer="g20" />
  <!--Generator: Sketch 52.6 (67491) - http://www.bohemiancoding.com/sketch-->
  <defs
     id="defs10">
    <path
       id="a"
       d="M0 0h248v152H0z" />
    <filter
       x="-.1%"
       y="-.2%"
       width="100.2%"
       height="100.3%"
       filterUnits="objectBoundingBox"
       id="b">
      <feOffset
         dy=".5"
         in="SourceAlpha"
         result="shadowOffsetInner1"
         id="feOffset3" />
      <feComposite
         in="shadowOffsetInner1"
         in2="SourceAlpha"
         operator="arithmetic"
         k2="-1"
         k3="1"
         result="shadowInnerInner1"
         id="feComposite5" />
      <feColorMatrix
         values="0 0 0 0 0 0 0 0 0 0 0 0 0 0 0 0 0 0 0.25 0"
         in="shadowInnerInner1"
         id="feColorMatrix7" />
    </filter>
  </defs>
  <g
     fill="none"
     fill-rule="evenodd"
     id="g20">
    <g
       stroke="#979797"
       id="g18">
      <path
         d="M15 46.296875v-35h35M201 11h35v35M15 99v35h35M201 134h35V99"
         id="path16" />
    </g>
  </g>
  <g
     transform="matrix(.98876 0 0 1.00045 102.74157396 58.7343377)"
     fill="none"
     fill-rule="evenodd"
     id="g28">
    <ellipse
       ry="10.5"
       rx="11"
       cy="18.5"
       cx="22"
       stroke="#050505"
       stroke-width="1.5"
       id="ellipse22" />
    <circle
       r="1.5"
       cy="9.5"
       cx="38.5"
       fill="#000"
       id="circle24" />
    <path
       d="M40 34H3c-1.6568543 0-3-1.343146-3-3V6.6087716c0-1.6568542 1.3431457-3 3-3h8.272211l1.650043-2.3384046C13.484355.47376892 14.398502 0 15.373451 0h13.021883c1.173068 0 2.238522.68372974 2.727244 1.7501446l.851781 1.858627H40c1.656854 0 3 1.3431458 3 3V31c0 1.656854-1.343146 3-3 3z"
       stroke="#040404"
       stroke-width="1.5"
       id="path26" />
  </g>
</svg>
