<svg xmlns="http://www.w3.org/2000/svg" viewBox="0 0 512.001 512.001" width="512" height="512"><path d="M503.172 423.725H8.828c-4.875 0-8.828-3.953-8.828-8.828V97.104c0-4.875 3.953-8.828 8.828-8.828h494.345c4.875 0 8.828 3.953 8.828 8.828v317.793c-.001 4.876-3.954 8.828-8.829 8.828z" data-original="#41479B" fill="#41479b"/><path d="M247.172 88.277h-15.334l-81.77 53.574V88.277H105.93v53.574L24.16 88.277H8.828C3.953 88.277 0 92.229 0 97.104v7.002l70.155 45.963H0v44.138h70.155L0 240.171v7.002c0 4.875 3.953 8.828 8.828 8.828h15.334l81.77-53.574v53.574h44.138v-53.574l81.769 53.574h15.334c4.875 0 8.828-3.953 8.828-8.828v-7.002l-70.155-45.963H256V150.07h-70.155L256 104.107v-7.002c0-4.876-3.953-8.828-8.828-8.828z" data-original="#F5F5F5" fill="#f5f5f5"/><path data-original="#FF4B55" class="active-path" fill="#ff4b55" d="M256 158.898H141.241V88.277h-26.482v70.621H0v26.482h114.759v70.621h26.482V185.38H256z"/><path d="M97.103 150.07L4.207 89.769C1.735 91.333 0 93.962 0 97.104v.458l80.889 52.508h16.214zM166.283 150.07l88.374-57.366c-1.536-2.599-4.246-4.427-7.485-4.427h-1.909l-95.194 61.793h16.214zM89.474 194.208L1.269 251.464c1.521 2.662 4.273 4.537 7.559 4.537h1.665l95.196-61.793H89.474zM255.86 247.866l-82.666-53.658H156.98l93.874 60.935c2.812-1.305 4.741-4.04 5.006-7.277zM395.474 368.114c-.358 0-.719-.113-1.026-.328L384 360.32l-10.449 7.466c-.306.215-.668.328-1.026.328-.366 0-.728-.113-1.038-.337-.612-.448-.875-1.241-.647-1.965l3.875-12.242-10.327-7.62c-.612-.457-.866-1.241-.633-1.965.237-.724.905-1.216 1.668-1.224l12.841-.104 4.061-12.181c.242-.715.918-1.207 1.677-1.207s1.436.491 1.677 1.207l4.061 12.181 12.841.104c.763.009 1.431.5 1.668 1.224.233.724-.022 1.508-.633 1.965l-10.327 7.62 3.875 12.242c.228.724-.034 1.517-.647 1.965-.314.224-.68.337-1.043.337z" data-original="#FF4B55" class="active-path" fill="#ff4b55"/><path d="M384 331.035l4.461 13.378 14.102.109-11.345 8.377 4.254 13.445L384 358.145l-11.473 8.201 4.254-13.445-11.345-8.377 14.102-.109 4.462-13.38m0-3.531c-1.519 0-2.869.972-3.35 2.414l-3.663 10.984-11.578.09c-1.519.011-2.861.994-3.331 2.44-.47 1.446.039 3.029 1.26 3.932l9.314 6.878-3.492 11.039c-.458 1.449.062 3.029 1.291 3.922.619.449 1.347.674 2.076.674.719 0 1.439-.22 2.054-.659l9.42-6.733 9.42 6.733c.615.438 1.334.659 2.053.659.728 0 1.457-.225 2.076-.674 1.229-.894 1.749-2.473 1.291-3.922l-3.492-11.039 9.314-6.878c1.223-.903 1.73-2.486 1.26-3.932-.47-1.445-1.811-2.429-3.331-2.44l-11.578-.09-3.663-10.984c-.482-1.441-1.832-2.414-3.351-2.414z" data-original="#F5F5F5" fill="#f5f5f5"/><path d="M395.474 225.794c-.362 0-.719-.113-1.026-.328L384 217.993l-10.449 7.474c-.306.215-.668.328-1.026.328-.362 0-.728-.113-1.038-.337-.612-.448-.875-1.241-.647-1.965l3.875-12.242-10.327-7.629c-.612-.457-.866-1.25-.633-1.965.237-.724.909-1.216 1.668-1.224l12.841-.095 4.061-12.181c.242-.715.918-1.207 1.677-1.207s1.436.491 1.677 1.207l4.061 12.181 12.841.095c.759.009 1.431.5 1.668 1.224.233.715-.022 1.508-.633 1.965l-10.327 7.629 3.875 12.242c.228.724-.034 1.517-.647 1.965-.314.224-.68.336-1.043.336z" data-original="#FF4B55" class="active-path" fill="#ff4b55"/><path d="M384 188.714l4.461 13.378 14.102.109-11.345 8.377 4.254 13.446L384 215.823l-11.473 8.201 4.254-13.446-11.345-8.377 14.102-.109L384 188.714m0-3.531c-1.519 0-2.869.972-3.35 2.414l-3.663 10.984-11.578.09c-1.519.011-2.861.994-3.331 2.44s.039 3.029 1.26 3.932l9.314 6.878-3.492 11.039c-.458 1.449.062 3.029 1.291 3.922.619.449 1.347.674 2.076.674.719 0 1.439-.22 2.054-.659l9.42-6.733 9.42 6.733c.615.438 1.334.659 2.053.659.728 0 1.457-.225 2.076-.674 1.229-.894 1.749-2.473 1.291-3.922l-3.492-11.039 9.314-6.878c1.223-.903 1.73-2.486 1.26-3.932s-1.811-2.429-3.331-2.44l-11.578-.09-3.663-10.984c-.482-1.442-1.832-2.414-3.351-2.414z" data-original="#F5F5F5" fill="#f5f5f5"/><path d="M457.267 269.932c-.362 0-.719-.113-1.026-.328l-10.447-7.474-10.449 7.474c-.306.215-.668.328-1.026.328-.362 0-.728-.113-1.038-.337-.612-.448-.875-1.241-.647-1.965l3.875-12.242-10.327-7.629c-.612-.457-.866-1.25-.633-1.965.237-.724.909-1.216 1.668-1.224l12.841-.095 4.061-12.181c.242-.715.918-1.207 1.677-1.207s1.436.491 1.677 1.207l4.061 12.181 12.841.095c.759.009 1.431.5 1.668 1.224.233.715-.022 1.508-.633 1.965l-10.327 7.629 3.875 12.242c.228.724-.034 1.517-.647 1.965-.315.224-.681.337-1.044.337z" data-original="#FF4B55" class="active-path" fill="#ff4b55"/><path d="M445.793 232.852l4.461 13.378 14.102.109-11.345 8.377 4.254 13.446-11.473-8.201-11.473 8.201 4.254-13.445-11.345-8.377 14.102-.109 4.463-13.379m0-3.531c-1.519 0-2.869.972-3.35 2.414l-3.663 10.984-11.578.09c-1.519.011-2.861.994-3.331 2.44s.039 3.029 1.26 3.932l9.314 6.878-3.492 11.039c-.458 1.449.062 3.029 1.291 3.922.619.449 1.347.674 2.076.674.719 0 1.439-.22 2.053-.659l9.42-6.733 9.42 6.733c.615.438 1.334.659 2.054.659.728 0 1.457-.225 2.076-.674 1.229-.894 1.749-2.473 1.291-3.922l-3.492-11.039 9.314-6.878c1.223-.903 1.73-2.486 1.26-3.932s-1.811-2.429-3.331-2.44l-11.578-.09-3.663-10.984c-.482-1.442-1.831-2.414-3.351-2.414z" data-original="#F5F5F5" fill="#f5f5f5"/><path d="M333.681 287.587c-.362 0-.719-.113-1.026-.328l-10.447-7.474-10.449 7.474c-.306.215-.668.328-1.026.328-.362 0-.728-.113-1.038-.337-.612-.448-.875-1.241-.647-1.965l3.875-12.242-10.327-7.629c-.612-.457-.866-1.25-.633-1.965.237-.724.909-1.216 1.668-1.224l12.841-.095 4.061-12.181c.242-.715.918-1.207 1.677-1.207s1.436.491 1.677 1.207l4.061 12.181 12.841.095c.759.009 1.431.5 1.668 1.224.233.715-.022 1.508-.633 1.965l-10.327 7.629 3.875 12.242c.228.724-.034 1.517-.647 1.965-.315.225-.681.337-1.044.337z" data-original="#FF4B55" class="active-path" fill="#ff4b55"/><path d="M322.207 250.507l4.461 13.378 14.102.109-11.345 8.377 4.254 13.446-11.473-8.201-11.473 8.201 4.254-13.446-11.345-8.377 14.102-.109 4.463-13.378m0-3.531c-1.519 0-2.869.972-3.35 2.414l-3.663 10.984-11.578.09c-1.519.011-2.861.994-3.331 2.44-.47 1.446.039 3.029 1.26 3.932l9.314 6.878-3.492 11.039c-.458 1.449.062 3.029 1.291 3.922.619.449 1.347.674 2.076.674.719 0 1.439-.22 2.053-.659l9.42-6.733 9.42 6.733c.615.438 1.334.659 2.053.659.728 0 1.457-.225 2.076-.674 1.229-.894 1.749-2.473 1.291-3.922l-3.492-11.039 9.314-6.878c1.223-.903 1.73-2.486 1.26-3.932-.47-1.446-1.811-2.429-3.331-2.44l-11.578-.09-3.663-10.984c-.481-1.442-1.831-2.414-3.35-2.414z" data-original="#F5F5F5" fill="#f5f5f5"/></svg>