<svg xmlns="http://www.w3.org/2000/svg" width="512" height="512" viewBox="0 0 469.351 469.351"><path fill="#03a9f4" d="M356.626 85.086c-10.332-9.837-25.314-13.036-38.763-8.277-3.803 1.271-6.573 4.568-7.168 8.533l-2.987 20.523c-4.529 30.998-31.052 54.019-62.379 54.144h-42.667c-4.896.001-9.162 3.335-10.347 8.085l-32 128c-1.426 5.716 2.052 11.505 7.768 12.931.843.21 1.709.317 2.578.317h53.333c4.896-.001 9.162-3.335 10.347-8.085l19.307-77.248h41.6c31.934.106 59.792-21.66 67.413-52.672l7.872-31.552c5.542-19.408.23-40.295-13.907-54.699z" data-original="#03A9F4"/><path fill="#283593" d="M10.664 437.342C4.773 437.341-.002 432.564 0 426.673c0-.869.107-1.735.317-2.578l10.667-42.453v-.448l10.667-42.432c1.185-4.75 5.451-8.084 10.347-8.085h27.136c14.728-.003 26.669 11.933 26.673 26.661 0 2.181-.267 4.354-.795 6.47l-2.667 10.667c-2.967 11.875-13.637 20.205-25.877 20.203H29.672l-8.64 34.581c-1.187 4.756-5.465 8.092-10.368 8.083zm24.341-64h21.461c2.447-.007 4.575-1.678 5.163-4.053l2.667-10.667c.731-2.841-.981-5.737-3.822-6.467-.438-.113-.888-.169-1.341-.167H40.338l-5.333 21.354zM124.733 437.342h-15.189c-16.33.004-29.571-13.231-29.575-29.561-.001-2.419.296-4.829.882-7.175l1.408-5.675c3.157-12.736 14.612-21.662 27.733-21.611h15.189c16.33.028 29.545 13.289 29.517 29.619-.004 2.407-.302 4.804-.887 7.138l-1.408 5.675c-3.16 12.705-14.579 21.614-27.67 21.59zm-23.168-31.552c-1.096 4.414 1.594 8.88 6.008 9.976.645.16 1.306.241 1.971.243h15.189c3.289.009 6.159-2.227 6.955-5.419l1.408-5.675c1.096-4.414-1.594-8.88-6.008-9.976-.645-.16-1.306-.241-1.971-.243h-15.189c-3.289-.009-6.159 2.227-6.955 5.419l-1.408 5.675z" class="active-path" data-original="#283593"/><path fill="#283593" d="M138.664 437.342c-5.891-.002-10.665-4.779-10.664-10.67 0-.869.107-1.735.317-2.578l10.667-42.667c1.426-5.72 7.218-9.202 12.939-7.776 5.72 1.426 9.202 7.218 7.776 12.939l-10.667 42.667c-1.187 4.758-5.465 8.094-10.368 8.085z" class="active-path" data-original="#283593"/><path fill="#03a9f4" d="M266.664 437.342c-5.891-.002-10.665-4.779-10.664-10.67 0-.869.107-1.735.317-2.578l10.667-42.453v-.448l10.667-42.432c1.185-4.75 5.451-8.084 10.347-8.085h27.136c14.728-.003 26.669 11.933 26.673 26.661 0 2.181-.267 4.354-.795 6.47l-2.667 10.667c-2.967 11.875-13.637 20.205-25.877 20.203h-26.795l-8.64 34.581c-1.188 4.757-5.466 8.093-10.369 8.084zm24.341-64h21.483c2.447-.007 4.575-1.678 5.163-4.053l2.667-10.667c.73-2.841-.981-5.737-3.822-6.467-.438-.113-.889-.169-1.341-.167h-18.816l-5.334 21.354zM380.733 437.342h-15.189c-16.33.004-29.571-13.231-29.575-29.561-.001-2.419.296-4.829.882-7.175l1.408-5.675c3.157-12.736 14.612-21.662 27.733-21.611h15.189c16.33-.004 29.571 13.231 29.575 29.561.001 2.419-.296 4.829-.882 7.175l-1.408 5.675c-3.157 12.736-14.612 21.662-27.733 21.611zm-23.168-31.552c-1.096 4.414 1.594 8.88 6.008 9.976.645.16 1.306.241 1.971.243h15.189c3.289.009 6.159-2.227 6.955-5.419l1.408-5.675c1.096-4.414-1.594-8.88-6.008-9.976-.645-.16-1.306-.241-1.971-.243h-15.189c-3.289-.009-6.159 2.227-6.955 5.419l-1.408 5.675z" data-original="#03A9F4"/><path fill="#03a9f4" d="M394.664 437.342c-5.891-.002-10.665-4.779-10.664-10.67 0-.869.107-1.735.317-2.578l10.667-42.667c1.426-5.72 7.218-9.202 12.939-7.776 5.72 1.426 9.202 7.218 7.776 12.939l-10.667 42.667c-1.187 4.758-5.465 8.094-10.368 8.085z" data-original="#03A9F4"/><g><path fill="#283593" d="M202.664 426.676c-3.568-.002-6.898-1.787-8.875-4.757l-21.333-32c-3.27-4.901-1.947-11.525 2.955-14.795s11.525-1.947 14.795 2.955l21.333 32c3.275 4.897 1.961 11.521-2.935 14.797-1.758 1.175-3.826 1.801-5.94 1.8z" class="active-path" data-original="#283593"/><path fill="#283593" d="M181.33 458.676c-5.891-.002-10.665-4.78-10.663-10.671.001-2.493.875-4.907 2.471-6.823l53.333-64c3.776-4.524 10.505-5.131 15.029-1.355 4.524 3.776 5.131 10.505 1.355 15.029l-53.333 64c-2.029 2.425-5.03 3.824-8.192 3.82z" class="active-path" data-original="#283593"/></g><path fill="#03a9f4" d="M437.33 437.342c-5.891-.002-10.665-4.779-10.664-10.67 0-.869.107-1.735.317-2.578l21.333-85.333c1.426-5.72 7.218-9.202 12.939-7.776 5.72 1.426 9.202 7.218 7.776 12.939l-21.333 85.333c-1.186 4.758-5.464 8.094-10.368 8.085z" data-original="#03A9F4"/><path fill="#283593" d="M321.405 29.129c-10.249-11.739-25.077-18.468-40.661-18.453H159.997c-5.159 0-9.578 3.692-10.496 8.768L106.834 254.11c-1.049 5.797 2.801 11.346 8.598 12.395.626.113 1.262.17 1.898.17h64c4.896-.001 9.162-3.335 10.347-8.085l19.328-77.248h34.325c41.958-.165 77.478-31.012 83.52-72.533l5.333-36.459c2.199-15.577-2.462-31.343-12.778-43.221z" class="active-path" data-original="#283593"/></svg>