<svg xmlns="http://www.w3.org/2000/svg" width="512" height="512" viewBox="0 0 201.611 201.611"><path fill="#010002" d="M46.3 88.167l4.638 33.248H62.34l21.24-41.168H71.602l-9.022 19.09c-1.278 2.709-2.38 5.164-3.328 7.412-.175-2.344-.365-4.624-.594-6.95l-1.84-19.551H38.609L57.555 95.24 46.3 88.167zM91.762 121.414l7.809-41.167H88.852l-7.82 41.167zM98.05 118.988c2.512 1.882 6.932 3.01 11.821 3.01 10.146 0 16.953-5.73 16.953-14.255 0-4.66-2.724-8.36-8.307-11.291-3.139-1.75-5.032-2.931-5.032-4.416 0-1.389 1.464-2.888 4.914-2.888 3.357 0 5.948 1.313 6.42 1.575l1.224.673 3.425-9.176-.902-.494c-2.555-1.41-5.74-2.104-9.717-2.104-9.717 0-16.502 5.672-16.502 13.793 0 5.894 4.635 9.165 8.7 11.356 3.833 1.983 4.581 3.117 4.581 4.406 0 2.466-2.673 3.35-4.957 3.35-2.985 0-6.091-.848-8.525-2.305l-1.21-.727-3.625 8.933.739.56zM137.167 121.414l4.606-10.06h9.287l.805 10.06h11.137l-4.828-41.168h-12.458l-20.038 41.168h11.489zm11.194-25.438c.429-.927.87-1.972 1.299-3.074.075.981.154 1.893.211 2.688l.637 7.04h-5.207l3.06-6.654z" class="active-path" data-original="#010002"/><g><path fill="#010002" d="M201.611 162.51H0V39.101h201.611V162.51zM6.367 156.147h188.874V45.471H6.367v110.676z" class="active-path" data-original="#010002"/></g></svg>